<svg xmlns="http://www.w3.org/2000/svg" width="128" height="128" viewBox="0 0 33.867 33.867"><defs><clipPath id="b"><path opacity=".97" fill="#2a3d45" fill-rule="evenodd" stroke-width="2.117" d="M7.039 8.586h33.86V42.46H7.039z"/></clipPath><clipPath id="a"><path transform="scale(-1)" opacity=".97" fill="#2a3d45" fill-rule="evenodd" stroke-width="362.812" d="M-5869.995-5940H-59.997v5800.004h-5809.998z"/></clipPath></defs><g transform="matrix(-.00583 0 0 -.00584 34.223 34.684)" clip-path="url(#a)"><path d="M1830 5940l-752.007-.996c-341.575-1.573-703.994-.102-1016.821-.19v-509.459h.322c-.96-85.153-1.499-187.326-1.498-306.357L60 4600.005h670.005v237.993l-42.012 25.005c-149 87-211.994 250.995-158.994 409.995 29 86 83.003 147.009 168.003 189.009 57 28 77.002 32.988 142.002 32.988 174 0 300.995-101 334.995-266 30-147-33.001-288.997-161-360.997l-52.999-30v-387.994l-26.997-30c-17-19-43.998-35.004-67.998-40.004-22-5-193.01-8.994-380.01-8.994s-359.002-1.01-382.002-1.01H60c-167.312-1809.388-.004-4230-.004-4230s3240.012-2.782 5812.357 0c6.273 1000.862 7.618 1636.24 7.647 2352.01v2107.999H4309.995v-238.008l44.004-26c190-111 229.994-360.998 83.994-521.998-80-86-199.995-128.004-304.995-104.004-153 33-240.003 120.007-273.003 272.007-30 131 41.003 280.005 168.003 355.005l41.997 24.99v176.001c0 195 7.003 225.001 63.003 266.001 30 22 25 22.001 1635 26.001h101.997v210h-106.992c-115 1-2302 1-2490 0-89 0-112.998-3.004-112.998-14.004 0-24-73-112.99-120-144.99-25-17-74.01-38.007-110.01-47.007-55-14-73.995-14.995-124.995-4.995-163 33-253.996 120.998-285.996 277.998-11 52-10.001 69.994 3.999 128.994 32 126 115.996 214.005 240.996 250.005 142 40 304.002-28.997 382.002-161.997l26-44.004h2700l-2.006 660H2070v-910.005l38.994-18.999c161-83 222.005-269.002 145.005-442.002-51-113-152.004-178.987-284.004-186.987-87-5-162.998 17.997-232.998 71.997-87 66-139.993 205.993-117.993 312.993 22 109 84.991 199.003 170.991 243.003l40.005 19.995v455.01z" fill="#6da741"/><path d="M771 5244c-85-71-16-210 93-190 52 10 81 48 81 108 0 43-4 53-33 79-43 38-98 40-141 3zm2031 11c-39-17-65-69-56-114 13-65 93-107 150-79 86 42 88 167 2 197-40 14-56 13-96-4zm-888-445c-58-23-73-116-28-169 73-87 219-12 184 95-22 67-92 100-156 74zm2236-668c-49-24-76-80-60-126 39-120 212-97 212 29 0 46-25 83-67 101-43 18-43 18-85-4z" fill="#2a3d45"/></g><path d="M32.783 19.14c-.051 0-.105.003-.159.007h-.021a4.407 4.407 0 0 0-1.056.24 8.367 8.367 0 0 0-.28.1l-.029.012c-.086.033-.174.068-.262.104l-.038.016a12.336 12.336 0 0 0-.632.285c-.15.072-.297.145-.444.221l-.125.064c-.177.092-.35.185-.518.279l-.037.02c-.182.102-.358.203-.524.3l-.148.089-.303.182a24.18 24.18 0 0 0-.549.346l-.102.065-.241.158a26.53 26.53 0 0 0-1.898 1.41 24.432 24.432 0 0 0-1.994 1.815l-.157.162-.23.24c-.084.09-.167.18-.25.272a22.91 22.91 0 0 0-.367.412c-.025.027-.05.054-.073.082v.002a21.235 21.235 0 0 0-1.585 2.085l-.022.032a19.585 19.585 0 0 0-.724 1.18l-.003.006c-3.622 6.48-2.824 15.144 4.722 18.197.061.025.122.051.184.075l.119.043c.093.036.188.07.282.103l.019.006a12.337 12.337 0 0 0 10.903-1.446h.002l.004-.002h.01a11.24 11.24 0 0 0 2.363-2.164 10.484 10.484 0 0 0 2.186-4.643h-.005c.102-.522.17-1.062.195-1.619.039-.825.01-1.642-.087-2.442l.005.002c-.27-2.24-1.086-4.353-2.568-6.13a23.102 23.102 0 0 0-1.423-1.532c-.334-.33-.655-.655-.965-.968a20.931 20.931 0 0 1-.632-.679c-.616-.698-1.136-1.427-1.453-2.288a5.178 5.178 0 0 1-.14-.437c-.014-.047-.025-.095-.037-.143a5.22 5.22 0 0 1-.026-.112c-.01-.048-.021-.097-.03-.146a5.41 5.41 0 0 1-.04-.231l-.016-.13a5.383 5.383 0 0 1-.043-.553v-.1a6.027 6.027 0 0 1 .003-.333c.004-.101.01-.203.018-.308l.006-.06a7.921 7.921 0 0 1 .103-.745c.01-.055.019-.108.025-.16l.004-.033a2.466 2.466 0 0 0 .017-.24l-.001-.051a1.534 1.534 0 0 0-.013-.185c-.002-.017-.006-.034-.009-.05a1.024 1.024 0 0 0-.077-.247l-.012-.026a.731.731 0 0 0-.033-.055l-.013-.02a.689.689 0 0 0-.043-.054c-.003-.005-.006-.01-.01-.013a.758.758 0 0 0-.367-.22 1.155 1.155 0 0 0-.14-.028l-.042-.007a1.555 1.555 0 0 0-.141-.01l-.033-.002z" clip-path="url(#b)" fill="#2a3d45" stroke="#fff" stroke-width="2.117" transform="translate(-7.026 -8.593)"/></svg>