<?xml version="1.0" encoding="UTF-8" standalone="no"?>
<!-- Generator: Adobe Illustrator 18.1.1, SVG Export Plug-In . SVG Version: 6.00 Build 0)  -->

<svg
   xmlns:xmpG="http://ns.adobe.com/xap/1.0/g/"
   xmlns:stDim="http://ns.adobe.com/xap/1.0/sType/Dimensions#"
   xmlns:xmpTPg="http://ns.adobe.com/xap/1.0/t/pg/"
   xmlns:xmpGImg="http://ns.adobe.com/xap/1.0/g/img/"
   xmlns:xmp="http://ns.adobe.com/xap/1.0/"
   xmlns:x="adobe:ns:meta/"
   xmlns:dc="http://purl.org/dc/elements/1.1/"
   xmlns:cc="http://creativecommons.org/ns#"
   xmlns:rdf="http://www.w3.org/1999/02/22-rdf-syntax-ns#"
   xmlns:svg="http://www.w3.org/2000/svg"
   xmlns="http://www.w3.org/2000/svg"
   xmlns:sodipodi="http://sodipodi.sourceforge.net/DTD/sodipodi-0.dtd"
   xmlns:inkscape="http://www.inkscape.org/namespaces/inkscape"
   version="1.1"
   id="Layer_1"
   x="0px"
   y="0px"
   viewBox="0 0 826 826"
   enable-background="new 0 0 755 826"
   xml:space="preserve"
   inkscape:version="0.91 r13725"
   sodipodi:docname="logo.svg"
   inkscape:export-filename="D:\Sites\greenDrupal\profiles\greenDrupal\themes\greenAdmin\logo.png"
   inkscape:export-xdpi="13.95"
   inkscape:export-ydpi="13.95"
   width="826"
   height="826"><defs
   id="defs25" /><sodipodi:namedview
   pagecolor="#000000"
   bordercolor="#666666"
   borderopacity="1"
   objecttolerance="10"
   gridtolerance="10"
   guidetolerance="10"
   inkscape:pageopacity="0"
   inkscape:pageshadow="2"
   inkscape:window-width="1600"
   inkscape:window-height="837"
   id="namedview23"
   showgrid="false"
   inkscape:zoom="0.36692324"
   inkscape:cx="-421.17893"
   inkscape:cy="383.8355"
   inkscape:window-x="-8"
   inkscape:window-y="-8"
   inkscape:window-maximized="1"
   inkscape:current-layer="Layer_1"
   showguides="true"
   inkscape:guide-bbox="true"><sodipodi:guide
     position="377.41824,321.73359"
     orientation="1,0"
     id="guide4303" /><sodipodi:guide
     position="304.40947,358.85669"
     orientation="0,1"
     id="guide4305" /></sodipodi:namedview><metadata
   id="metadata3"><?xpacket begin="ÿ" id="W5M0MpCehiHzreSzNTczkc9d"?><x:xmpmeta
     x:xmptk="Adobe XMP Core 5.6-c014 79.156821, 2014/08/29-03:07:50        "><metadata><rdf:RDF><rdf:Description
           rdf:about=""><xmp:CreateDate>2005-04-19T17:04:57Z</xmp:CreateDate><xmp:ModifyDate>2005-04-19T18:04:24Z</xmp:ModifyDate><xmp:CreatorTool>Illustrator</xmp:CreatorTool><xmp:Thumbnails><rdf:Alt><rdf:li
                 rdf:parseType="Resource"><xmpGImg:width>224</xmpGImg:width><xmpGImg:height>256</xmpGImg:height><xmpGImg:format>JPEG</xmpGImg:format><xmpGImg:image>/9j/4AAQSkZJRgABAgEASABIAAD/7QAsUGhvdG9zaG9wIDMuMAA4QklNA+0AAAAAABAASAAAAAEA
AQBIAAAAAQAB/+4ADkFkb2JlAGTAAAAAAf/bAIQABgQEBAUEBgUFBgkGBQYJCwgGBggLDAoKCwoK
DBAMDAwMDAwQDA4PEA8ODBMTFBQTExwbGxscHx8fHx8fHx8fHwEHBwcNDA0YEBAYGhURFRofHx8f
Hx8fHx8fHx8fHx8fHx8fHx8fHx8fHx8fHx8fHx8fHx8fHx8fHx8fHx8fHx8f/8AAEQgBAADgAwER
AAIRAQMRAf/EAaIAAAAHAQEBAQEAAAAAAAAAAAQFAwIGAQAHCAkKCwEAAgIDAQEBAQEAAAAAAAAA
AQACAwQFBgcICQoLEAACAQMDAgQCBgcDBAIGAnMBAgMRBAAFIRIxQVEGE2EicYEUMpGhBxWxQiPB
UtHhMxZi8CRygvElQzRTkqKyY3PCNUQnk6OzNhdUZHTD0uIIJoMJChgZhJRFRqS0VtNVKBry4/PE
1OT0ZXWFlaW1xdXl9WZ2hpamtsbW5vY3R1dnd4eXp7fH1+f3OEhYaHiImKi4yNjo+Ck5SVlpeYmZ
qbnJ2en5KjpKWmp6ipqqusra6voRAAICAQIDBQUEBQYECAMDbQEAAhEDBCESMUEFURNhIgZxgZEy
obHwFMHR4SNCFVJicvEzJDRDghaSUyWiY7LCB3PSNeJEgxdUkwgJChgZJjZFGidkdFU38qOzwygp
0+PzhJSktMTU5PRldYWVpbXF1eX1RlZmdoaWprbG1ub2R1dnd4eXp7fH1+f3OEhYaHiImKi4yNjo
+DlJWWl5iZmpucnZ6fkqOkpaanqKmqq6ytrq+v/aAAwDAQACEQMRAD8A9U4q7FXYq7FXYq7FXYq7
FXYq7FXYq7FWA/npcMn5a6jaxScLvUJbWzswKgtLJcxniCP8hWOZWjH7wHutw9cf3RHfX3pd+Un5
kzalPdeTPMcoXzXoryW5kYn/AEyOBihkUnrIvH4x1P2v5uM9XpuH1x+k/pa9HquL0S+qO3vr9L0/
MJ2DsVdirsVdirsVdirsVdirsVdirsVdirsVdirsVdirsVdirsVdirsVdirsVdirsVea/mXL+lvP
PkfypEQ3+nHWr5R9pIrFSYuXbjIxdfmMzNP6YSl5V83B1J4skIed/L8F5D+dNld6V+Z93qGnSta3
ytDe2dwmzK5Ran/g1ObzRQGXTgHpYef18zh1RI5Gi9r/ACm/NKx876SYp+Nt5isVA1Kx6V7evFXr
Gx6/ynY/sltDqtKcUvJ6LR6sZo/0vxuz3MVzHYq7FXYq7FXYq7FXYq7FXYq7FXYq7FXYq7FXYq7F
XYq7FXYq7FXYq7FXYqo317aWNnPe3kqwWltG0s8zmioiDkzH5AYYxJNBEpACzyebflXDeeZfMWs/
mRfRvFDqI+oeXoJKhk0+Ft34ksB6jqCaftcqbHMzUkQiMY6c/e4OlBnI5T12Hued/wDOQXA+elIN
WFpErD5FiP15vOx/7n4vP9t/3/wDzWxvtU0jVLfWdGnNrqlm3KKVejDoUYHYqw2IOxGZmp04yBwd
LqTilb6l/K780tK88aWacbTXLVR+kNOJ3Hb1Yq7tGT/wJ2PYnk9TpjiPk9lpNXHLH+kzjMZy3Yq7
FXYq7FXYq7FXYq7FXYq7FXYq7FXYq7FXYq7FXYq7FXYq7FXYqg9X1jS9H06fUtUuY7Oxt15TTymi
geHuT0AG5OwyUIGRoc2M5iIsmg8yePW/zauovUim0r8t4XEhR6x3OrOhqtQN0twRUePXrThmXHAO
/J934/Hng1LUHux/7r9n493SLy803QtMjRUWGCBBFa2sYCiiCioqjoAPuzFhAzk5eTJHHF8peftf
bXfNF3fc+aA+nGw6EKTWntyJp7Z2Okw+HjAeH1ufxMhkx7MlxW7S51DTtRg1XSbl7HVLVuUFzGaH
pQhuxBGxB2I2O2Y+fTxyCi5On1MsZsPe/wAvP+chdI1IRaX5vCaRq1OK3x2s5zUAHkf7ljXfl8O3
2hsuc3qezpQPp5fj5vU6TtOGQVLY9/45PYo5I5I1kjYPG4DI6moIO4II6g5rXagt4q7FXYq7FXYq
7FXYq7FXYq7FXYq7FXYq7FXYq7FXYq7FXYqwvzN+aOlabqB0PRLeTzF5nNQuk2JB9Mg0JuZt0hVT
9qu47im+ZGPTEjil6Y97i5NUAeGPql3D9KW6X+W+ra7qEOu/mLdJqV1F8dloEFRptofEoSfWfxZv
l8W1Jy1AiOHHsO/qWENMZHiyGz3dAyvzDrN9pkI+q2lY6AfWDT017AcV3++mQwYhM7lsz5pQGweM
fmjqnmKbTPrMc5MLHhfPWjhGoFVewQk0NP65vdBjgJVXued7RyZDG726vIs3Lo3Yq7FVkkUcqlJF
DKexyMog7FMZEGwnvlLz7528nOBod+ZbAGraVd1ltz1J4ioKVJ/YK175r9R2dCbs9L2pPHt0+z8e
57V5P/5yN8qaoyWnmGJ9A1BqLzkrJaOSQNpVFUqST8a8QP2s0efs6cOW70Gn7Uxz57fc9Wtbq1u7
eO5tZkuLaZQ8U0TB0dT0KspII+WYBBBouyBBFhVwJdirsVdirsVdirsVdirsVdirsVdirsVdirsV
Yn5r/M3yx5duV05nk1LXZTxg0TT1+sXbMQCAyLsmxr8ZG3SuX49PKQvlHvLj5dTGBrnLuDHzoP5m
+dW5eYLz/CXl9+ui6dIHvpUI+zPdAUQGvRO2xWu+W8ePH9I4pd55fJp8PLl+o8Ee4c/mzXyz5S8u
eWLAWOh2MdnBt6hQVkkI/akkNXc/6xzHyZZTNyLlY8UYCoik3ytsSHzlfxQaS1sTWa5IVV/yVILH
+GZOlgTK+5xdXMCFd7w38zdWjg0lNOU1mu2DMvhHGeVT82Ap9OdBocdy4u55rtDJUeHveYZtXTux
V2KuxV2KrXjSReLqGU9jvgIB5pEiOSYeW/Mvmryrcev5c1KS0UnlLZOfUtpO3xRNVa070r4EZg59
BCYc/T9ozxnm9w8if85FaJqkkeneaoV0TUn+FbqpNlIf9diTF/siV/ys0Op7OnDlv+Ptej0vakMn
1bfd+x7Ajq6h0IZGAKsDUEHoQc1ztG8VdirsVdirsVdirsVdirsVdirsVQWs61pOi6dNqWq3UdnY
wDlLPKaD5DuzHso3J2GShAyNDmwnMRFk0Hmo13z/APmPJw8uer5W8nE/Frkq0vrte/1VP91qez19
+XVczODHi+r1T7ugcLjyZvp9EO/qWa+TvIHlfyjamLR7QLPL/vTfSn1LmY+Mkp3678RRfbMbLnlM
7uVh08MY9IZFlTc7FUHquq2um2pnnO/SOMfaZvAZZjxmZoNeXKICy8r80+Z0ijn1XUXoBtHGO/8A
LGg/z8c3GnwcoxdHqdRVyk8N1jVrrVdQlvbk/HIfhQdEUfZUewzfY8YhGg85lyGcrKCyxrdirsVd
irsVdirsVWSxRyoUkUMp7HIyiCKKYyINhlXkP80/NfkZ0ghY6r5fB+PS52NYgTyLW77lD12+zudq
75qtX2bGe45/j5u50XakobHl+Pk+mvJ3nfy55v0sajolz6qCgnt3os0LkfYlSp4nbr0PYnOdy4ZY
zRenw545BcU+ypudirsVdirsVdirsVdirsVY753886R5R01Lm953F7dN6OmaZAOVxdTGlEjQVPUj
k1KCo7kA3YcJmduXUtOfOMY35nkO9imjfl/rPmnUYfM35jcZZI/i0vyuhraWineswqRLKf2q/TUU
C3TziA4cfxPe48NPLIePL8I9A9NACgKooBsAOgGYbnOxV2KoDWNatNLg9SY8pG/uoR9pj/Ae+WYs
RmdmrLmEBu8x8y+ZlCS6nqkoSJBRVHQeCIvic2+DB/DF0uo1H8UninmXzJea5e+rL+7t46i3twdl
B7nxY9zm9wYRjFdXns+c5DZ5JRlzQ7FXYq7FXYq7FXYq7FXYq7FVfRdY1vy5qyaz5fuTaX6Aq6je
OZCatHIh2ZTTv336gHMPU6SOQcnN0uslilzfUP5Yfmpo/njT2VQLPXLVa3+mM1WUVp6kZNOcZJ6/
snY9ieW1OlliPk9fpdXHMNubN8xnLdirsVdirsVdirsVY356872XlTTI5mha+1W9f0NJ0qHea5nP
RVAqeK1HNqbfMgG7DhMz3Acy0Z84xjvJ5BJvIvkLUIdQk83ecJFvvN96tFUbwWEJ6W9sNwKV+Jh9
53Zp5swI4IbRH2teDAQeOe8z9jPcxnLdirsVY/rvmy2seUFrSe7Gx/kQ+5HU+wzJw6Yy3OwcTNqh
HYbl5r5l8021jG99qc5knk+xHsXc+CjwH3DNrgwGW0Q6fUakR9Uju8f8w+Y7/W7v1rg8IV/uLdSe
CD+LeJzdYcIxig6HPnlkNlKsuaXYq7FXYq7FXYq7FXYq7FXYq7FXYq3aXepaZqVvq+kXDWeq2bc7
e4T7irA7MrDYg7EbHbMfUacZBRcnTamWOQIL6o/Kz8zLDzxoplKi21qzCpqliK0Vz0kjqSfTehpX
cdD4nktVpjilXR7PSaoZo31ZtmM5bsVdirsVdiqU+afM+leWdDuNY1NytvAKJGorJLI2yRRr+07n
YfedqnLMWMzlQa8uUY48RYv5B8q6jdag/nnzWofzJfpxsrU7pp1o1SkEVf2yG+Nvc+JrfnyADgj9
I+0uPp8RJ8Sf1H7Az7MRzHYqhr/UrKwh9W6lEa/sr1Zj4KOpycIGRoMJ5IxFlhWs+bry95Q21ba2
OxofjYe5HT5DM/FphHc7l1ubVGWw2DzXzN59sdMDW1lxur4VBANY4z/lEdT7DNrg0hnudg6fUa2M
No7yeYahqN7qF011eStNM/Vj2HgB0A9hm0hARFB1E5mRs80Pk2DsVdirsVdirsVdirsVdirsVdir
sVdirsVV9H8w6t5X1y18w6O/C7tmpNGa8Joj9qKQDqrf2jcDMHW6cZI7ufoNTLHLZ9feTfNulebP
L1rremPWG4FJIiQXilXZ4nHZlP3ihGxGcnlxmEqL2eHKMkeIJ1lba7FXYq7FXi8OuW/5gfmFDeu3
PyloVyINKjagjubsf3t038yj7MftvsSc2kcRxYz/ADiHUSyjNlH8wF7RmrduhrzUrCzXldTpF7E/
Efko3OTjCUuQYTyRjzLGdT887GPTo6dvXlH/ABFf6/dmXj0n85wsmt/msH1/zLaWSm71W7/eN9lW
PKR6dlXr/AZsMOAy2iHW59QI7yLzHzH+YGo6lyt7KtnZHY0P71x/lMOnyH45tMOkjHc7l0+fWyns
NgxXMxwnYq7FXYq7FXYq7FXYq7FXYq7FXYq7FXYq7FXYqpXK8oHHsT92+QmNizgakGVfkr+YzeTf
NC297KV8v6syxXoP2YZekdwPDj0f/J8aDNHrtNxxscw9B2fquCVH6S+us0D0jsVdiryj/nIPz2+h
+Wk0DT5Aura8GhalC0VpSkznuOdeC7fzU3XM/s/T8c77vvdb2lqfDhXU/d+1j/kyzt7PytpkFv8A
YECOSP5pBzf/AIZjmxzCpEOtwG4AslOr6qUCG8m4AU4+o3T78x/Cj3ByPFn3lKNT1nTtPjM1/cpC
DuOZqzfJRVm+jLoY5S2iGjJljHeRYLrn5nTPyh0eL0l6fWpQC3zVOg+mvyzYYtCOcnW5u0CdoMIu
bq5upmnuZWmmfdpHJYn6TmdGIAoOulIk2VLJIdirsVdirsVdirsVdirsVdirsVdirsVdirsVdirs
VWS/3T/6p/VkZckx5hJmUMpU9DmCRbsAafU3/OPfnxvMPlL9D3snLVdCCwMSd5LYgiB/9iF4H5An
rnPa7BwTvoXp+z9Rxwo8w9VzCc9xIUEk0A3JPQDFXxt5281SebvOepa8WLWZf6tpaGtFtYiQlASe
PP7bD+YnOt7P0/BB4vtPU+JP8fBW0fznrulW4treVXt1rwilXkFruaHY/jmTk00JmzzcXFqpwFDk
q3nn7zPcqV+tCBT1EKhT/wAFuw+/BHSYx0TPWZD1pIZppppGlmkaWRt2dyWY/MnMgADk4xJO5WYU
OxV2KuxV2KuxV2KuxV2KuxV2KuxV2KuxV2KuxV2KuxV2KqN03G3c+Ip9+2QyH0lnjFyCVZhuayr8
rfN58p+etO1SR+FhM31TUt6D6vMQCzdf7tuL/wCxzE1mHjge9zdDn8OYPR9oZzb1Tz/89fMz6D+X
GoGElbvVCum2xAB3uAfUr4fuVkofGmZeix8WQeW7h6/LwYj57fj4PlyCIRQpGOiin0987GEaFPDT
lxElUyTF2KuxV2KuxV2KuxV2KuxV2KuxV2KuxV2KuxV2KuxV2KuxV2KuxV2KoPUXoip4mp+jKMx2
pvwDe0BmO5K115IV8cBFhINF9ifkv5pPmP8ALvS7qV+d5aJ9RvDuT6lvRQWJ6s8fBz885nVY+DIQ
9Zo8vHjB7tnlv/OS+sG6816Hoa0MdhbPey0NfjnfgoYdiohqP9bNp2Pi5n8bf2uo7by1UfL7/wCx
5VnRPMuxV2KuxV2KuxV2KuxV2KuxV2KuxV2KuxV2KuxV2KuxV2KuxV2KuxV2KpTdS+pMzDoNl+Qz
DySsubjjQUsgzdir3T/nFjXWS+17y87MVkSPULdK/CpU+lMaeLc4/uzTdp4+Une9k5OcWD/mdqQ1
T80fMt2BxWG4WyUVr/vKghb72jrm17LhWMe7793T9r5OLKff92zHs2bqnYq7FXYq7FXYq7FXYq7F
XYq7FXYq7FXYq7FXYq7FXYq7FXYq7FXYqhr2f04+A+2/4DKss6FNuKFm0tzFct2KuxVnP5HaqNN/
NTRmZykN561nLT9r1Ym9Nf8AkaEzB18Lxl2HZs6yhIJb+XUtS1LU5TWW/vJ7mQ7btK5Y9AB1ObPS
Q4YU6rWz4slt5lOI7FXYq7FXYq7FXYq7FXYq7FXYq7FXYq7FXYq7FXYq7FXYq7FXYqsllWJC7dug
8TkZSoWyjEk0lMkjSOXbqcw5GzbmxjQpbgS7FXYqmXle/XTvNeh6gwqtnqFrMw6VWOZWI6HsMp1E
bgQ5GmlwzB81ul/7wxnuSxP/AARzP0/0B12o+sovLmh2KuxV2KuxV2KuxV2KuxV2KuxV2KuxV2Ku
xV2KuxV2KuxV2KrXdUUsxoBgJpIBJSu4naZ6nZR9kZiTnxFzIQ4QpZBm7FXYq7FVkrFFDjqrBhT2
ORnyZw5pnpX+8EX+y/4kcy9P9AcLUfWUXlzS7FXYq7FXYq7FXYqitM0nU9Vu0s9NtZbu6f7MUKl2
p4mnQe5yGTJGAuRoM8eOUzURZeo+Xv8AnHbzBdosut3sWmqdzbxj6xL8mIKxj6GbNRm7ZgNoDi+x
3WDsLJLeZ4ftZrZf849eR4U/0ia9unpuWlRBX2CIv6zmDLtnMeVB2MOw8I5mRRc35C/l5ItEt7iI
0pVJ2Jr4/Hy3yA7Xz94+TM9i6c9D80g1b/nG7R5FZtJ1ae3fqEukSZT7VT0iPuOZGPtuX8UQfd+C
4uXsCB+iRHv3/U848y/k/wCeNBVppLP69aLubiyJlAH+UlBIPnxpm0wdpYcm10fN1Oo7LzYt64h5
fi2FZnuudirsVdirsVdiqySRI15OaDBKQHNMYknZLLi4eZt9lHRcxJzMnMhARUsgzdiqc6D5N81a
/U6NpVzeoDRpY4z6QPgZDRAfmcqyZoQ+o03Y8E5/SCUXrX5b+etFga41LRLqG3QVknCepGo8WePm
q/ScjDU45bAhlk0uWAsxLG8vcdTuP7pvo/XkZ8mcOabWUTwrLbuKPBLJGw8Crb5laY3FxNUKmicv
cd2KuxV2KuxV2Ksz/Ln8stV843nME2ujwNS6viK1PX04gftP+C9T2Bwdbro4B3y7nYaDs+WoPdAc
z+p9K+WfKmg+WrAWWkWqwJQerL1llYftSP1Y/q7ZyufUTyyuRew0+mhhjwwFJvlLe7FXYq7FXYqw
vzp+U3lXzQrzvD9Q1RqkX9uoDFv+LU2WT6fi98z9L2hkxbc49xddq+zMWbeuGXeP0975786/l15k
8pXFL+H1bJzSDUIatC/gCf2G/wAlvornSaXW48w9PPueV1egyYD6ht39GMZluG7FXYqpT3EcK77s
ei5CcxFnCBklk0zytyY/IdhmLKRLlxiI8lmRZJjoPl3Wtf1FNO0e0kvLuTcJGNlHdnY0VVHixpkM
mSMBcjQbMeKUzURZfQ3kD/nHbRNKEd95oZNV1AUYWa1+qRnwYGhlP+tRfY9c02o7RlLaGw+13um7
LjHefqP2ftewQwwwRJDCixRRgLHGgCqqjoABsBmtJt2oFL+uxwJfPP5//lXY6fAfNuhwCC3LhNVt
YxRFaRqLOo/Z5MQrAdyD45uez9WZeiXwdF2noxEeJH4/reEtGZSkQFTI6qB7k0zZzOzqMY3Zp55s
JdO/MPzRZSoIz+kJbhEGw9O5YzR0H+o4yXZs7xj4I7Uhw5T7ylGbB1rsVdirsVdiqfeSPKV75q8w
2+k21URv3l1PSoihUjm/40HuRmNqtQMMDI/guTo9Mc2QQHx9z610bR9O0bTLfTdOhEFpbKEjRfxY
nuzHcnuc47LklORlLmXusWKOOIjEUAjMrbHYq7FXYq7FXYq7FVK6tLW7tpLa6hSe3lHGWGRQ6Mp7
FTscMZGJsbFjKIkKIsPDvzD/ACGlh9XU/KamWLdpdJY1de59Bj9of5B38CemdBo+1gfTk+f63m9d
2KR6sX+l/U8YljkikaOVTHIhKujAhlI2IIPTN4Dbz5FbIG4vlWqxbt/N2GVTy1yboYb5oFmZiSxq
T1JzHJtyQKawK9J/Lj8kPMXmsxX99y0vQmowuZF/ezL1/cIex/nbbw5dMwdTro49hvJ2Gl7Pnl3O
0fxyfTHlXyf5f8raaun6LarbxbGWU/FLK380jndj+A7UGaPLmlkNyL0OHBDGKiE5ypudirsVS7zH
o8OtaBqOkzAFL63kgqexdSFb/YnfJ458MhLua8sOOJj3h8X+TNP+u+ePL+nyoeM2pWyTJ0IQTLz6
+C1zpNTKoE+TyuljeQDzD0X/AJyG0Y6f+ZEGpKjCDWrJC0h+yZ7f92yqf8mNY6/PKex8u1fjvcjt
vFUuLv8A7P1PPM3rzzsVdirsVdir6N/5x/8ALEdh5Wk1qRP9L1aQ8GPUW8JKKPpcMffbOY7Yz8WT
g6R+963sTT8OLjPOX3B6lmod07FXYq7FXYq7FXYq7FXYq7FWF+ffyn8secYmkuUNlqdKJqNuAHNO
glX7Mg+e/gRmZp9bkxbA3HucLU6DHl3IqXe8C8y/kB+YGkTObO2XWLMH4J7Rhzp25QsQ9f8AV5D3
za4u0McuZouly9m5Y8hxDyQeh/kd+ZOrSqv6LOnwk0a4vmEKrv8AyfFKfoTJ5Ndij1v3McfZ+aXS
ve9r8h/kB5X8vPHe6sRrOqJRlMq0t42G/wAEW/IjxevsBmq1HaE57D0h2+m7NhDeXqP2PUumwzAd
k7FXYq7FXYq7FXyp+SWlDU/zmFwkY+r6aLy9ZG3Cg1hTr3V5lIze66dYq9zzvZ0LzX3W9Q/5yU8v
G+8kwa1CtbnQrlZWPf0JyIpAB/r+mfkDmF2dl4cld/6HYdqYePHfd+n8B88qwZQy7qwqD7HOtBt4
sil2FDsVdirsVfZHk+ySx8qaPaIABDZQKadz6a8j26nfOH1MuLJI+ZfQNLDhxRH9EJvlLe7FXYq7
FXYq7FXYq7FXYq7FXYq07oil3YKo3LE0A+k4qst7m2uY/Ut5UmjrTnGwZaj3FcJBHNAIPJUwJdir
sVdirsVdiqB17UV0zQ9R1JjRbK2muCf+MUZfv8snjjxSA7ywyT4Yk9weLf8AOLPl/hputeYpFHK6
mSytmIPIJCvqSEduLtIv0rmw7SyXIRdZ2ViqJl8Htuq6baappl3pt4pe0vYZLe4UGhMcqlGoe2xz
XRkYkEdHaTiJAg9Xxbe6Te6Hq1/oN8P9L0ud4HahAdQfgkXkAeLr8S+xGdjo8onAU8NrcJxzIKzM
tw3Yq7FXYq+zvLcyT+XdKnjNY5bO3dD7NEpHTOGzipyHmX0HTm8cT/RH3JjlTc7FXYq7FXYq7FXY
q7FXYqhdU1XTdKspL7UrqO0s4hWSeZgij2qe57DvkowMjQFljOYiLJoPD/PH/OSyIz2flC2ElKqd
Tu1PE+8UOx+l/wDgc2uDszrP5Om1Ha3TGPiXiuvebPMvmCczazqU965NQsrn01/1IxRE+SgZtMeK
MPpFOoyZpzNyNqWheY9d0C9W90e9lsrhSCWiYgMB2dfsuPZgRhyY4zFSFox5ZQNxNPpT8qfzv0/z
T6Wka1wsdf8AsxsPhhuT/wAV1Pwyf5Hft4DR6vQnH6o7x+56DR9oDJ6ZbS+96rmvdm7FXYq7FXYq
84/P/XTpn5cXltCSbzV5I7C2Rd2YyNycAe8aMPpzL0ULyX3OF2hOsRHfsyfyB5YTyv5O0rQxT1bS
AfWSDUGeQmSYg7beozU9spzZOOZLfgxcEBFkGVNzwP8A5yS8mNDPZ+drKIlAFs9ZCD9kmkEzUHif
TJJ/kGbjsvU8J4T+PxzdH2vpeIcQ/Hd+r5PGwQQCDUHcHOmeUbxV2KuxV9Qfkj5hj1byJa25at1p
RNpMvfivxRGnh6ZA+YOcl2ph4MxPSW72fZGfjwAdY7fqZ/mudo7FXYq7FXYq7FXYq7pucVeW/mB+
fnlry76tjo/HWNXWqkRt/o0Tf8WSD7RH8qfIkZn6fQSnvL0h1up7Shj2j6pfY+dPNnnbzL5rvvre
tXjT8SfRtx8MMQPaOMbD59T3ObvDgjjFRDoc2onlNyKRZa0OxV2Kto7o6ujFXUhlZTQgjcEEYpfS
n5LfnSdcMXlzzHKq6sqhbG+Y0+sgbcHr/u3wP7Xz66PW6Lg9UeX3PQaDX8fon9XQ9/7Xsuax2zsV
dirsVeUXHHzz+ckEUZ9TQPIg9WZgapJqcp+FdiP7opX2KEftZmj93i/pT+515/e5v6MPver5hOwd
iqF1bS7DVtNudM1CIT2V5G0M8TdCjih+R8COmSjIxNhjOIkKPIvjTzf5b1LyT5nuvL99WWGM+pY3
JFPWtnJ9OQfdRh2YEds6nR6viiHj9dojCZQUc0UgqjA+3fNiJA8nWSiRzX5Ji7FWU/l156u/J+vL
eoplsZwIr+2H7cda8lr+2nVfu75h63SDNCuvRzdDrDgnxdDzD6o0TXNK1zTYtR0u4W5tJh8Lr1B7
qwO6sO4OcjlxSxy4ZCi9rhzRyR4omwjsrbXYq7FXYq7FWFedfzd8meVEkjubsXmpLULp1qRJLyHa
Qj4Y/wDZGvgDmVg0c8nIUO9w9RrseLmbPcHz158/Orzb5sElqr/ozR3qPqFuxq6ntNLsz/LZfbNz
p9FDHvzk6LU6/Jl25R7nn+ZjgvVvyy/IfVvM0cWq6276Zor0aJQALidfFA1Qin+Zhv2BG+a/Va8Q
2jvJ2ek7Olk9Uto/aXveiflf5A0aER2eh2rMOs1xGLiUn/Xl5sPo2zUT1WSXORd3j0eKHKI+9Mjo
nlK5/cmwsJu/p+jC/T2ocr45jqWzw8Z6BIfMf5Ofl7rttJG+kw2NwwPC7sVFu6sf2qIAjf7JTl2P
WZIHnfvaMuhxTHKvc+VvOvlHUfKfmK60W++J4TyhnAossLbpIvzHUdjUds6DBmGSIkHmtRgOKZiU
kR3R1dGKupDKymhBG4IIy1qfSn5NfnZFrKQeXfMkwTWRSOzvn2W58Ec9pf8AiX+t10et0PD6o/T9
z0Gg7Q4/RP6u/v8A2vZc1jtnYq89/N78xn8saZFpWjg3HmvWSLfS7WMc3QyHh6xX5miDu3sDmVpc
HGbP0hw9XqeAcMfrPJOfy28lx+UPKltpjMJtQkJudUualjLdS0MjVO5AoFB8BXrlefLxyvp0bdNh
8OFderKcpb3Yq7FWCfm9+Wtv538u+nDxi1yx5S6XcHYFj9qFz/JJT6DQ+IOTpdQccvJxNXphlj5j
k+Q54Lq1uprS7ia3vLZ2iuIHBV0dDRlIPQgjOkhMSFh5acDE0Vy3VwvRz9O/68tGSQ6tJxxPRd9e
uf5vwGHxZI8GLje3J/bp9Ax8WS+FFNfLfnbzR5bvfrej38ls5p6kezRSAdnjaqt923bKM2OOUVLd
yMGWWI3A09e0P/nKOVY1TXdEDuPtXFlJxB/55S8v+TmavJ2X/NPzdvj7Y/nR+TJ4P+cl/wAv5FBk
t9RhboVaGI/TVZW2yg9mZPJyB2ti7pfj4omT/nI78t0Qsr3kh/lW33/4ZlGR/k3L5Mj2rh8/kx3W
f+co9KRGXRdFnncj4ZLyRIQD4lI/Vr/wQy6HZZ/iPyaMnbEf4Y/N5j5p/On8wPMSvDNf/ULN6g2t
iDCpB7M9TIw9i1Mz8Wixw6WfN12bX5cnM0PJgvXc5luE7FXsX/OPn5c6R5gurrXtXRbm202RYray
ahR5ivLnKp6qopQdCflmt7Q1MoARj1dt2ZpYzJlLcDo9R/NH85dI8nRNp9iEv/MDL8NrX93ACNmn
K/eEG59hvmv0uill3O0XY6zXxxbDeX45vmjzH5381+Y7h5tY1Oe5Dmog5FYV9liWiL92b3HghAek
PPZdRPIfUbSNWKkMpoRuCOoOWtT2H8k/zc1bT9dttA1y8e60i/YQ28s7F2t5m2jo7VPpsfhIOw67
b11uu0YMeKI3DtOz9bKMhGRuJ+xk/wDzlHpNgdK0bV+SrqCTtaBP2pIXQyE/KNk/4bKOy5mzHo5P
bEBwxl15PnfNy6F3TcYq9e8jf85Fa/otqlhr1udZtYwFiuefC5VR2ZiGEn00Puc1ufs6MjcfS7XT
9qSgKkOIfanevf8AOUkjWjpomjejcMpAubuUOEPiIkA5fS30ZVDssDeR2bsna5IqMd/NMvyO8j6v
qmoyfmR5taS41K8BOkLP9oIw4m4K9qr8MQ6cdwKFTlGszADw4cg36HASfEnuTy/X+p7fmudq7FXY
q7FXYq8j/O38nB5oibzBoUap5jt0pNCKKLyNBQKT09RQKKe4+E9qZ+j1fhmj9LrtdovEHFH6vvfM
LLIkjxSo0U0TFJYnBVlZTQqwO4IOb6MgQ83KJBouyTF2KuxV2KuxV2KuxV2KuxV2Kpv5f83+ZvLw
uRomoy2IvFCXHpEDkFrQ7g0IqaMN8ryYYT+oXTbizzx3wmrSqaaWaV5pnaSWQlpJHJZmYmpJJ3JO
WAU1k2txQ7FXdNxiqO1bXda1idJ9Wvp7+aNQkclxI0hVR2BYmgyEMcY8hTOeSUzcjaBybB2KtEgC
p6Ypeo/kr+UM3m29TXdaiZPLNq/7qJgQbyVD9kf8VKftt3+yO/HWa3WcPpjzdroNFxnil9P3vqlE
REVEUKigBVAoABsAAM0b0LeKuxV2KuxV2KuxV5N+cH5I2vmoSa3oIS18yIKyIaLFdhR9l+yyfyv0
7N4rnaXWHHsfpdfrNCMm8fq+98x3tne2F7NYahbvaX1u3Ce2lUq6t7g5voZBIWHnMmMxNFSybW7F
XYq7FXYq7FWU/l9+XWued9TktNOKQwWwV7y8lrwiVyQuw3Zm4niPbtmPqNTHELLk6bSyzGgyDz1+
RPmzyxALy1/3M6eFrNNbRsJIiOvOKrNxp+0K+9Mpwa+GTY+kt+p7OnjFj1B5tmc692KuxV2KuxVd
HHJJIscal5HIVEUEkk9AAMUgPU/IX/OP/mfXZY7rXVfRtJ2LCQUupB1okZ+x836eBzX6jtCENo+o
/Y7LTdmTnvL0x+1i35o+TrLyj5wudGsZ5Li0jjiliaYqZQJEBKuVCqTX2G2ZGlzHJDiPNxtZgGLI
YjkxJmVRUmgy8mnGAt6v+Uf5H33meSDW/MUb2nlwUkgtjVJbzuPdIj3bqR9n+YazV63h9MebttF2
eZeqX0/e+n7W1trS2itbWJILaBFjhhjUKiIooqqo2AAzSkkmy78AAUFXAl2KuxV2KuxV2KuxV2Ks
O/MP8rPLXnizAv4/q2pxLxtNUhA9aPuFbp6iV/Zb3oQd8vwaiWM7cnG1GljlG/PvfL3nr8tfNnkm
5K6rb+tpzNxt9VgBaB69Axp8D/5LfRUb5vcGrjkHm89qdFPGfJiwIIqNxmW4beKHYq7FXYq9C/J3
8zk8katcreQtPpOpemt36f8AeRtGW4SKD1oHbkvf6Mw9ZpfFG3MOfodX4Mjf0l9UaF5h0TXrBL/R
7yK9tX/biapU/wArr9pW9mFc5/JjlA1IU9JjyxmLibCR+Y/yq8g+YZHm1HSIfrT7tdQVglLH9pmi
K8z/AK1ctx6vJDkWnLo8U+Y3YRe/84w+TpW5WepX9sD+y5ilA+XwIfxzLj2pPqA4cuyMfQlLf+hW
LD/qYpf+kVf+qmT/AJVP837Wv+Rx/O+xfF/zizpQesuvzungluin7y7fqwHtU/zUjseP877E90z/
AJxt/Ly1YNdNe6gR1SaYIh/5ErE3/DZVLtLKeVBuh2ViHOyzKy0DyH5Msmu7e0sdHt4xR7x+CNQ9
mmk+M/ItmNLJkymiTJy44sWIWAIvMfPv/OSNhbxyWPlCL6zcmqnVJ1Kwp7xRt8Tn3ag9jmdp+zSd
5/J12p7VA2x/N4NXzB5n11liSfV9av3LMFBkkdj1Jp0AH0AeAzamUcce4B1AhPJLvJe+fll/zjtZ
6c0Wr+chHfagKPDpS0e2hPX96ekrDw+x/rZp9TrzLaPLvd3pezhHefPue3AU2HTNa7V2KuxV2Kux
V2KuxV2KuxV2KuxVTubW2ureS2uoknt5lKSwyqHR1OxVlaoIPvhBI3CCARReM+d/+caNE1BpL3yp
c/oi8b4jYzcns2O32SOUkXc/tDsAM2GDtCUdpbus1HZkZbx2eFeaPI/m/wAqy8Ne0yW1iJ4pdqPU
t3J6cZU5JX2rX2zbYtTCfIumzaSePmEjVlYVBrl4LjEU3hQ7FXYqjdJ1rV9Huhd6VezWNyP92wSN
GxHgeJFR7HIzhGQoi2cMkom4mnoej/8AORf5i2CBLp7XU1G3K5h4vT/WgMX3kHMKfZ2I8rDnw7Uy
x50WS23/ADlPqCgfWfLsUp/a9O5aOvy5RyZQeyh0l9jkDtg9Y/art/zlU3E8fLADU2Jvqivy+rjB
/JX9L7P2p/ln+j9v7EFcf85Sa4w/0bQraM06ySySb/7ER5IdlR6yLE9sS6RDH9X/AOci/wAxr5GS
3ltdNU7crWGrU/1pzN94y6HZ2Ic7LRPtTNLlQ9zA7rVPM/mnU0SWa81zUpKiGIGS4k8SEUcqD2UZ
kgwxjagHEIyZTvZL0zyZ/wA42eZtUMd15nuBo1iaE2cRWW7ddjQkVjjqD1JYjuuYGbtEDaO7stP2
XI7y2+9775S8jeV/KVj9U0KxS2DAevOfjmlI7ySNVm8adB2AzU5M0pm5F3OLBHGKiE+yttdirsVd
irsVdirsVdirsVdirsVdirsVdiq2WKKaJ4pUWSKRSkkbgMrKwoQQdiCMQVIt555m/IL8t9cZ5UsW
0m7c1M+nN6Ir/wAYiGhp8kB98y8etyR624eXQYp9K9zzPW/+cXPMcBLaHrVtfRgE+leI9u9R0UFP
WVj7njmbDtMdQ6/J2Sf4SwXVPye/NHTAGuPL08yE0DWjJdV/2MLSMPpGZcNdjPVwp9n5Y9P0sav9
I1vTnKajpl3ZOOq3EEkRHTs4Hjl8c0TyLjywTjzCB9eMGhNCOxByfGGHAXfWIv5vwOPGF4CrW8N1
cuEtreadz0WKNnJr7AYDkASMUiyHT/y1/MXUZEjtfLWofvKcHnha3jNeh9SYIlPeuUS1mMdQ3x0W
U9Cy/Rv+cbfzGvqNfvZ6THUBlll9aWniqwiRD9LjMafaUBy3cvH2VM89nonl7/nGHyfZMsut31zr
MineIf6LAR7pGWk+6TMPJ2jM8tnPxdmY489/sepaH5a8v6DbfVdG0+CwhIAZYI1Qtx2Bdh8Tn3Yk
5hTySlzNufDHGAqIpMsgzdirsVdirsVdirsVdir/AP/Z</xmpGImg:image></rdf:li></rdf:Alt></xmp:Thumbnails><dc:format>image/svg+xml</dc:format><xmpTPg:MaxPageSize
             rdf:parseType="Resource"><stDim:w>755.000000</stDim:w><stDim:h>826.000000</stDim:h><stDim:unit>Points</stDim:unit></xmpTPg:MaxPageSize><xmpTPg:NPages>1</xmpTPg:NPages><xmpTPg:HasVisibleTransparency>False</xmpTPg:HasVisibleTransparency><xmpTPg:HasVisibleOverprint>False</xmpTPg:HasVisibleOverprint><xmpTPg:PlateNames><rdf:Seq><rdf:li>Cyan</rdf:li><rdf:li>Magenta</rdf:li><rdf:li>Yellow</rdf:li><rdf:li>Black</rdf:li></rdf:Seq></xmpTPg:PlateNames><xmpTPg:SwatchGroups><rdf:Seq><rdf:li
                 rdf:parseType="Resource"><xmpG:groupName>Default Swatch Group</xmpG:groupName><xmpG:groupType>0</xmpG:groupType></rdf:li></rdf:Seq></xmpTPg:SwatchGroups></rdf:Description><cc:Work
           rdf:about=""><dc:format>image/svg+xml</dc:format><dc:type
             rdf:resource="http://purl.org/dc/dcmitype/StillImage" /><dc:title></dc:title></cc:Work></rdf:RDF></metadata></x:xmpmeta><?xpacket end="w"?></metadata>path
     style=&quot;fill:#000000;fill-opacity:1&quot;
     inkscape:connector-curvature=&quot;0&quot;
     d=&quot;m 184.7,577.9558 c 0.8,-58.5 55.5,-113.2 124.5,-114 87.8,-0.8 148.5,87 192.8,86.2 37.5,-0.8 109.5,-74.2 144.8,-74.2 37.5,0 48,39 48,62.2 0,23.2 -7.5,65.2 -25.5,91.5 -18,26.3 -29.2,36 -50.2,34.5 -27,-2.2 -81,-86.2 -115.5,-87.8 -43.5,-1.5 -138,90.8 -212.2,90.8 -45,0 -58.5,-6.8 -73.5,-16.5 -22.8,-15.7 -34,-39.7 -33.2,-72.7 l 0,0 z&quot;
     id=&quot;path4154&quot; /&gt;<g
   id="g5276"
   transform="translate(35.5,2.9721015)"><path
     style="fill:none"
     inkscape:connector-curvature="0"
     id="path21"
     d="m 628.2,258.5 c 15,45.8 0.8,87 -9,112.5 -9.8,25.5 -60,136.5 -331.5,258 -50.2,22.5 -60.8,32.2 -117.8,33 -48,0.8 -72.8,-15.8 -88.5,-30 l -7.4,0.3 c 60.7,103.2 175.4,169.2 298.4,169.2 180.8,0 337.5,-131.2 337.5,-330 0,-109.1 -44.3,-185.5 -88.3,-234.6 1.6,5.7 3.8,12.8 6.6,21.6 z" /><path
     id="path4140"
     d="m 547.1,163.2558 c -39.8,-24.8 -77.2,-34.5 -114.8,-59.2 -23.2,-15.800003 -55.5,-53.200003 -82.5,-85.500003 -5.2,51.8 -21,72.8 -39,87.800003 -38.2,30 -62.2,39 -95.2,57 -27.8,14.2 -178.5,104.2 -178.5,297.7 0,193.5 162.8,336 343.5,336 180.7,0 337.5,-131.2 337.5,-330 0,-198.8 -147,-288.8 -171,-303.8 z"
     inkscape:connector-curvature="0"
     style="fill:#2f5314;fill-opacity:0.94117647" /><path
     id="path4144"
     d="m 361.7,714.4558 c 15,12 37.5,21.8 85.5,21.8 48,0 81.7,-13.6 96.7,-24.8 6.8,-5.2 9.8,-0.8 10.5,2.2 0.7,3 2.2,7.5 -3,12.8 -3.8,3.8 -38.2,27.8 -78.8,31.5 -40.6,3.7 -95.2,6 -128.2,-24 -5.2,-5.2 -3.8,-12.8 0,-15.8 3.8,-3 6.8,-5.2 11.2,-5.2 4.4,0 3.8,0 6.1,1.5 l 0,0 z"
     inkscape:connector-curvature="0"
     style="fill:#000000;fill-opacity:1" /><path
     id="path4146"
     d="m 177.9,657.4558 c 57,-0.8 67.5,-10.5 117.8,-33 271.5,-121.5 321.8,-232.5 331.5,-258 9.7,-25.5 24,-66.8 9,-112.5 -2.9,-8.8 -5,-15.9 -6.5,-21.6 -36.1,-40.3 -71.9,-62.4 -82.7,-69.1 -39,-24.8 -77.3,-34.5 -114.8,-59.2 C 409,89.055797 376.7,50.855797 349.7,18.555797 c -5.2,51.8 -20.2,73.5 -39,87.800003 -38.2,30 -62.2,39 -95.2,57 -27.8,14.9 -178.6,104.1 -178.6,297.6 0,61.8 16.6,118.4 45.1,166.8 l 7.4,-0.3 c 15.7,14.2 40.5,30.8 88.5,30 z"
     inkscape:connector-curvature="0"
     style="fill:#67a940;fill-opacity:1" /><path
     id="path4148"
     d="m 546.9,163.2558 c -39,-24.8 -77.2,-34.5 -114.8,-59.2 -23.2,-15.000003 -55.5,-53.200003 -82.5,-85.500003 -5.2,51.8 -20.2,73.5 -39,87.800003 -38.2,30 -62.2,39 -95.2,57 -27.7,14.9 -178.5,104.1 -178.5,297.6 0,61.8 16.6,118.4 45.1,166.8 60.7,103.2 175.4,169.2 298.4,169.2 180.8,0 337.5,-131.2 337.5,-330 0,-109.1 -44.3,-185.5 -88.3,-234.6 -36.1,-40.4 -71.9,-62.4 -82.7,-69.1 z m 91.2,87.7 c 49.2,61.6 74.2,134.2 74.2,216 0,47.4 -9,92.2 -26.8,133.2 -16.9,38.8 -41.2,73.2 -72.3,102.3 -61.5,57.4 -144.1,89 -232.7,89 -43.8,0 -86.8,-8.4 -127.8,-24.9 -40.3,-16.2 -76.5,-39.4 -107.8,-69 -66.1,-62.4 -102.4,-146.4 -102.4,-236.6 0,-80.3 26.1,-151.7 77.5,-212.2 39.3,-46.2 81.7,-71.8 98,-80.6 8,-4.3 15.4,-8.2 22.6,-11.9 22.6,-11.6 44,-22.6 73.4,-45.6 15.7,-11.900003 32.4,-30.800003 39.5,-78.700003 24.8,29.5 53.5,62.6 75.5,76.800003 19.5,12.9 39.5,21.9 58.8,30.6 18.3,8.2 37.2,16.8 55.9,28.7 0,0 0.7,0.4 0.7,0.4 54.9,34.1 84.1,70.6 93.7,82.5 z"
     inkscape:connector-curvature="0"
     style="fill:#005024;fill-opacity:1" /><path
     id="path4150"
     d="m 353.4,33.455797 c 10.5,30.8 9,46.5 9,53.2 0,6.7 -3.8,24.800003 -15.8,33.800003 -5.2,3.8 -6.8,6.8 -6.8,7.5 0,3 6.8,5.2 6.8,12 0,8.2 -3.8,24.8 -43.5,64.5 -39.7,39.7 -96.8,75 -141,96.8 -44.2,21.8 -65.2,20.2 -71.2,9.7 -6,-10.5 2.2,-33.8 30,-64.5 27.8,-30.7 115.5,-75 115.5,-75 l 109.5,-76.500003 6,-29.2"
     inkscape:connector-curvature="0"
     style="fill:#93c517;fill-opacity:1" /><path
     id="path4152"
     d="m 353.4,32.655797 c -6.8,49.5 -21.8,64.5 -42,80.200003 -33.8,25.5 -66.8,41.2 -74.2,45 -19.5,9.8 -90,48.8 -126.8,105 -11.2,17.2 0,24 2.2,25.5 2.2,1.5 27.8,4.5 82.5,-28.5 54.7,-33 78.8,-52.4 109.6,-84.6 16.5,-17.2 18.8,-27 18.8,-31.5 0,-5.2 -3.8,-7.5 -9.8,-9 -3,-0.8 -3.8,-2.2 0,-4.5 3.8,-2.3 19.4,-9.8 23.2,-12.8 3.8,-3 21.8,-15 22.5,-34.500003 0.7,-19.5 -0.7,-33 -6,-50.3 l 0,0 z"
     inkscape:connector-curvature="0"
     style="fill:#000000;fill-opacity:1" /><path
     id="path4156"
     d="m 636.1,253.9558 c 15,45.8 0.8,87 -9,112.5 -9.8,25.5 -60,136.5 -331.5,258 -50.2,22.5 -60.8,32.2 -117.8,33 -48,0.8 -72.8,-15.8 -88.5,-30 l -7.4,0.3 c 60.7,103.2 175.4,169.2 298.4,169.2 180.8,0 337.5,-131.2 337.5,-330 0,-109.1 -44.3,-185.5 -88.3,-234.6 1.6,5.7 3.8,12.8 6.6,21.6 z"
     inkscape:connector-curvature="0"
     style="fill:none" /><path
     id="path4713"
     d="m 176.80001,582.5 c 0.8,-58.5 55.5,-113.2 124.49999,-114 87.8,-0.8 148.5,87 192.8,86.2 37.5,-0.8 109.5,-74.2 144.8,-74.2 37.5,0 48,39 48,62.2 0,23.2 -7.5,65.2 -25.5,91.5 -18,26.3 -29.2,36 -50.2,34.5 -27,-2.2 -81,-86.2 -115.5,-87.8 -43.5,-1.5 -138,90.8 -212.2,90.8 -44.99999,0 -58.49999,-6.8 -73.49999,-16.5 -22.8,-15.7 -34,-39.7 -33.2,-72.7 l 0,0 z"
     style="fill:#000000;fill-opacity:1"
     inkscape:connector-curvature="0" /></g></svg>