<?xml version="1.0" encoding="UTF-8" standalone="no"?>
<!-- Created with Inkscape (http://www.inkscape.org/) -->

<svg
   xmlns:osb="http://www.openswatchbook.org/uri/2009/osb"
   xmlns:dc="http://purl.org/dc/elements/1.1/"
   xmlns:cc="http://creativecommons.org/ns#"
   xmlns:rdf="http://www.w3.org/1999/02/22-rdf-syntax-ns#"
   xmlns:svg="http://www.w3.org/2000/svg"
   xmlns="http://www.w3.org/2000/svg"
   xmlns:sodipodi="http://sodipodi.sourceforge.net/DTD/sodipodi-0.dtd"
   xmlns:inkscape="http://www.inkscape.org/namespaces/inkscape"
   width="128.00011"
   height="127.99999"
   viewBox="0 0 33.866692 33.866663"
   version="1.1"
   id="svg8"
   inkscape:version="0.92.3 (2405546, 2018-03-11)"
   sodipodi:docname="logo.svg"
   inkscape:export-filename="/mnt/data/Projekte/greencko/web/profiles/greencko/themes/custom/greencko_ui/logo.png"
   inkscape:export-xdpi="96"
   inkscape:export-ydpi="96">
  <defs
     id="defs2">
    <linearGradient
       id="linearGradient5089"
       osb:paint="gradient">
      <stop
         style="stop-color:#00ffff;stop-opacity:1;"
         offset="0"
         id="stop5085" />
      <stop
         style="stop-color:#00ffff;stop-opacity:0;"
         offset="1"
         id="stop5087" />
    </linearGradient>
    <clipPath
       clipPathUnits="userSpaceOnUse"
       id="clipPath5331">
      <rect
         style="opacity:0.97000002;fill:#2a3d45;fill-opacity:1;fill-rule:evenodd;stroke:none;stroke-width:2.11666656;stroke-miterlimit:4;stroke-dasharray:none;stroke-opacity:1"
         id="rect5333"
         width="33.859802"
         height="33.873592"
         x="7.0394611"
         y="8.5863905" />
    </clipPath>
    <clipPath
       clipPathUnits="userSpaceOnUse"
       id="clipPath5335">
      <rect
         style="opacity:0.97000002;fill:#2a3d45;fill-opacity:1;fill-rule:evenodd;stroke:none;stroke-width:362.81213379;stroke-miterlimit:4;stroke-dasharray:none;stroke-opacity:1"
         id="rect5337"
         width="5809.9985"
         height="5800.0044"
         x="-5869.9951"
         y="-5940"
         transform="scale(-1)" />
    </clipPath>
  </defs>
  <sodipodi:namedview
     id="base"
     pagecolor="#ffffff"
     bordercolor="#666666"
     borderopacity="1.0"
     inkscape:pageopacity="0.0"
     inkscape:pageshadow="2"
     inkscape:zoom="2"
     inkscape:cx="-11.8196"
     inkscape:cy="32.139329"
     inkscape:document-units="mm"
     inkscape:current-layer="layer1"
     showgrid="false"
     inkscape:window-width="1920"
     inkscape:window-height="1031"
     inkscape:window-x="0"
     inkscape:window-y="24"
     inkscape:window-maximized="1"
     fit-margin-top="0"
     fit-margin-left="0"
     fit-margin-right="0"
     fit-margin-bottom="0"
     units="px" />
  <metadata
     id="metadata5">
    <rdf:RDF>
      <cc:Work
         rdf:about="">
        <dc:format>image/svg+xml</dc:format>
        <dc:type
           rdf:resource="http://purl.org/dc/dcmitype/StillImage" />
        <dc:title />
      </cc:Work>
    </rdf:RDF>
  </metadata>
  <g
     inkscape:label="Ebene 1"
     inkscape:groupmode="layer"
     id="layer1"
     transform="translate(-7.0257166,-8.5933198)"
     style="display:inline">
    <flowRoot
       xml:space="preserve"
       id="flowRoot3701"
       style="font-style:normal;font-weight:normal;font-size:40px;line-height:125%;font-family:sans-serif;letter-spacing:0px;word-spacing:0px;fill:#000000;fill-opacity:1;stroke:none;stroke-width:1px;stroke-linecap:butt;stroke-linejoin:miter;stroke-opacity:1"><flowRegion
         id="flowRegion3703"><rect
           id="rect3705"
           width="418.04745"
           height="376.9426"
           x="377.95276"
           y="744.56696" /></flowRegion><flowPara
         id="flowPara3707" /></flowRoot>    <g
       transform="matrix(-0.00582785,0,0,-0.00584027,41.248912,43.277594)"
       id="g4324"
       clip-path="url(#clipPath5335)">
      <path
         inkscape:connector-curvature="0"
         id="path3779-3"
         d="M 244,0 143.73242,0.1328125 C 98.189094,0.34256693 49.866532,0.14642952 8.15625,0.15820312 V 68.085938 H 8.199219 C 8.0712791,79.439758 7.9993982,93.062747 7.9995097,108.93359 L 8,178.66602 h 44.666016 44.667968 v -15.86524 -15.86719 l -5.601562,-3.33398 C 71.865755,131.99961 63.466536,110.13359 70.533203,88.933594 74.39987,77.466927 81.60026,69.332422 92.933594,63.732422 c 7.599996,-3.733334 10.266926,-4.398438 18.933596,-4.398438 23.2,0 40.13268,13.466797 44.66601,35.466797 4,19.599999 -4.40013,38.532809 -21.46679,48.132809 l -7.06641,4 v 25.86719 25.86524 l -3.59961,4 c -2.26667,2.53333 -5.86641,4.66731 -9.06641,5.33398 -2.93333,0.66667 -25.734631,1.19922 -50.667964,1.19922 -24.933334,0 -47.866927,0.13476 -50.933594,0.13476 H 8 c -22.308311,241.25156 -4.903e-4,564.00001 -4.903e-4,564.00001 0,0 432.0015703,0.37076 774.9809503,10e-6 C 783.81687,639.88563 783.9962,555.16853 784,459.73242 V 178.66602 H 679.33398 574.66602 v 15.86718 15.86719 l 5.86718,3.4668 c 25.33334,14.8 30.66589,48.13294 11.19922,69.59961 -10.66666,11.46666 -26.66601,17.06718 -40.66601,13.86718 -20.4,-4.4 -32.00039,-16.00091 -36.40039,-36.26757 -4,-17.46667 5.46705,-37.33399 22.40039,-47.33399 l 5.59961,-3.33203 v -23.4668 c 0,-26 0.93372,-30.00013 8.40039,-35.46679 4,-2.93334 3.33333,-2.93347 218,-3.4668 h 13.59961 v -14 -14 h -14.26563 c -15.33333,-0.13333 -306.93333,-0.13333 -332,0 -11.86667,0 -15.06641,0.40052 -15.06641,1.86719 0,3.2 -9.73333,15.06536 -16,19.33203 -3.33333,2.26667 -9.86796,5.06758 -14.66796,6.26758 -7.33334,1.86666 -9.86602,1.99935 -16.66602,0.66601 -21.73333,-4.4 -33.86615,-16.13307 -38.13281,-37.0664 -1.46667,-6.93334 -1.33347,-9.33256 0.5332,-17.199222 4.26667,-16.800001 15.46615,-28.533985 32.13281,-33.333985 18.93334,-5.333333 40.5336,3.86628 50.9336,21.599609 L 422.93359,88 h 180 180 L 782.66602,0 H 276 v 60.666016 60.667964 l 5.19922,2.53321 c 21.46667,11.06666 29.60065,35.86692 19.33398,58.93359 -6.8,15.06667 -20.26718,23.86498 -37.86718,24.93164 -11.6,0.66667 -21.73308,-2.39961 -31.06641,-9.59961 -11.6,-8.8 -18.66576,-27.46575 -15.73242,-41.73242 C 218.80052,141.86706 227.19935,129.86667 238.66602,124 L 244,121.33398 V 60.666016 Z"
         style="fill:#6da741;fill-opacity:1;stroke-width:0.13333334"
         sodipodi:nodetypes="cccccsccccccccscccccccsscccccccccccccccscccccccsccccccccccccccccccccccc"
         transform="matrix(7.4999999,0,0,-7.4999999,0,5940)" />
      <path
         inkscape:connector-curvature="0"
         d="m 771,5244 c -85,-71 -16,-210 93,-190 52,10 81,48 81,108 0,43 -4,53 -33,79 -43,38 -98,40 -141,3 z"
         id="path3789-2"
         style="fill:#2a3d45;fill-opacity:1" />
      <path
         inkscape:connector-curvature="0"
         d="m 2802,5255 c -39,-17 -65,-69 -56,-114 13,-65 93,-107 150,-79 86,42 88,167 2,197 -40,14 -56,13 -96,-4 z"
         id="path3791-9"
         style="fill:#2a3d45;fill-opacity:1" />
      <path
         inkscape:connector-curvature="0"
         d="m 1914,4810 c -58,-23 -73,-116 -28,-169 73,-87 219,-12 184,95 -22,67 -92,100 -156,74 z"
         id="path3793-1"
         style="fill:#2a3d45;fill-opacity:1" />
      <path
         inkscape:connector-curvature="0"
         d="m 4150,4142 c -49,-24 -76,-80 -60,-126 39,-120 212,-97 212,29 0,46 -25,83 -67,101 -43,18 -43,18 -85,-4 z"
         id="path3795-9"
         style="fill:#2a3d45;fill-opacity:1" />
    </g>
    <path
       style="fill:#2a3d45;fill-opacity:1;fill-rule:nonzero;stroke:#ffffff;stroke-width:2.11666656;stroke-miterlimit:4;stroke-dasharray:none;stroke-opacity:1"
       d="m 32.782821,19.140241 c -0.05081,-5.7e-4 -0.104592,0.0029 -0.158404,0.0063 -0.0075,4.78e-4 -0.01433,2.98e-4 -0.02182,8.89e-4 -0.311805,0.02289 -0.670129,0.109462 -1.051018,0.238031 -0.0014,4.73e-4 -0.0029,9.71e-4 -0.0043,0.0014 -0.09207,0.03115 -0.185387,0.06463 -0.279686,0.100316 -0.0097,0.0036 -0.01948,0.0076 -0.02919,0.01133 -0.08687,0.0332 -0.174279,0.06808 -0.2624,0.104559 -0.01275,0.0053 -0.02549,0.01077 -0.03826,0.01615 -0.07292,0.0305 -0.145943,0.06226 -0.219328,0.09464 -0.137382,0.06061 -0.274831,0.124318 -0.412303,0.190142 -0.149507,0.07161 -0.296918,0.145471 -0.444039,0.221027 -0.0418,0.02146 -0.08378,0.0421 -0.12525,0.06376 -0.176723,0.09231 -0.349474,0.185478 -0.517433,0.278836 -0.01219,0.0068 -0.02498,0.01363 -0.03712,0.0204 -0.182222,0.10169 -0.358524,0.202637 -0.524233,0.300089 -0.05266,0.03096 -0.09731,0.05851 -0.147919,0.0887 -0.104504,0.06234 -0.208181,0.12404 -0.30264,0.181922 -0.235423,0.144228 -0.393847,0.245739 -0.549168,0.346279 -0.02833,0.01829 -0.07724,0.04839 -0.10258,0.06489 l -0.240864,0.158121 c -0.64708,0.43719 -1.279663,0.907084 -1.897727,1.410046 -0.697983,0.567954 -1.363491,1.174148 -1.99407,1.814983 -0.05286,0.05355 -0.104361,0.10833 -0.156704,0.162371 -0.0769,0.0796 -0.153994,0.159075 -0.229813,0.23973 -0.0845,0.08971 -0.167743,0.180469 -0.250782,0.271468 -0.04444,0.04873 -0.08886,0.09741 -0.1329,0.146502 -0.07887,0.08793 -0.156894,0.176436 -0.234346,0.265517 -0.0241,0.02766 -0.04885,0.05469 -0.07282,0.08246 v 0.0023 c -0.571899,0.664341 -1.103228,1.36016 -1.585168,2.084183 -0.0071,0.01088 -0.01434,0.02174 -0.02154,0.0326 -0.07185,0.108396 -0.142955,0.21709 -0.212527,0.326726 -0.08559,0.134162 -0.169956,0.269072 -0.252483,0.405219 -0.08899,0.14817 -0.175035,0.297942 -0.259283,0.448573 -0.0011,0.0016 -0.0019,0.0034 -0.0029,0.0051 -3.621942,6.481117 -2.824054,15.144598 4.722637,18.197424 0.06099,0.02513 0.121364,0.05086 0.183624,0.0751 0.03927,0.01505 0.07903,0.02843 0.118447,0.04307 0.09398,0.03529 0.188118,0.06949 0.282521,0.102295 0.0063,0.0021 0.01244,0.0044 0.0187,0.0066 3.767208,1.302176 7.849653,0.635734 10.903493,-1.446318 l 0.002,2.9e-4 c 0.0013,-8.9e-4 0.0025,-0.0016 0.0036,-0.0026 l 0.0097,0.0011 c 0.887156,-0.604971 1.68292,-1.333925 2.363301,-2.164659 1.102171,-1.342549 1.853536,-2.937919 2.18648,-4.642727 h -0.0054 c 0.102558,-0.522297 0.169634,-1.062056 0.195526,-1.619174 0.03822,-0.824923 0.0096,-1.641806 -0.08699,-2.442361 l 0.0043,0.002 c -0.269825,-2.240211 -1.085375,-4.352652 -2.568144,-6.129945 -0.459922,-0.552775 -0.945753,-1.053398 -1.423083,-1.53218 -0.333696,-0.329342 -0.65439,-0.654322 -0.964873,-0.967706 -0.178526,-0.183718 -0.351796,-0.367637 -0.519417,-0.553137 -0.03775,-0.0418 -0.07514,-0.08381 -0.112213,-0.125817 -0.616172,-0.697825 -1.135905,-1.427256 -1.453121,-2.287641 -0.01033,-0.02803 -0.02044,-0.05613 -0.03032,-0.08444 -0.01668,-0.04768 -0.03332,-0.09545 -0.04873,-0.143951 -0.02187,-0.06884 -0.04252,-0.138559 -0.06177,-0.209127 -0.01287,-0.04712 -0.02433,-0.09517 -0.03599,-0.143101 -0.009,-0.03697 -0.01753,-0.0742 -0.02578,-0.111648 -0.01066,-0.04844 -0.02145,-0.09693 -0.03089,-0.146219 -0.01456,-0.07605 -0.0279,-0.152779 -0.03939,-0.230946 -0.0063,-0.04294 -0.01106,-0.08704 -0.01644,-0.130634 -0.0063,-0.05052 -0.01208,-0.101305 -0.01701,-0.152736 -0.0042,-0.04395 -0.0084,-0.08798 -0.01162,-0.132616 -0.0064,-0.08783 -0.01138,-0.176648 -0.01388,-0.267218 -8.89e-4,-0.033 -4.35e-4,-0.06693 -8.89e-4,-0.100315 -8.9e-4,-0.06983 -7.13e-4,-0.140442 8.89e-4,-0.211961 8.91e-4,-0.04009 0.0018,-0.08035 0.0034,-0.120999 0.004,-0.100887 0.0092,-0.202837 0.01785,-0.307174 0.0016,-0.01955 0.0042,-0.03983 0.0059,-0.05951 0.0087,-0.09474 0.01941,-0.191069 0.03201,-0.288753 0.0042,-0.03291 0.0086,-0.06592 0.01332,-0.09918 0.01661,-0.117359 0.03505,-0.235869 0.05752,-0.357613 0.01022,-0.05532 0.01844,-0.108253 0.02522,-0.15982 0.0015,-0.01144 0.0021,-0.0219 0.0034,-0.03315 0.0041,-0.03409 0.0079,-0.06815 0.01044,-0.100602 0.0016,-0.02185 0.0026,-0.04263 0.0036,-0.06376 0.0013,-0.02594 0.0025,-0.05194 0.0029,-0.07679 2.9e-4,-0.01731 -2.9e-4,-0.03365 -6.02e-4,-0.05044 -2.92e-4,-0.0232 -7.14e-4,-0.04638 -0.002,-0.06858 -0.0011,-0.01979 -0.0027,-0.03881 -0.0045,-0.0578 -0.0019,-0.01969 -0.0038,-0.03923 -0.0066,-0.05809 -0.0024,-0.01742 -0.0055,-0.03428 -0.0085,-0.05101 -0.0033,-0.01863 -0.0069,-0.03692 -0.01106,-0.05469 -0.0035,-0.01531 -0.0071,-0.03037 -0.01133,-0.04506 -0.0051,-0.01826 -0.01077,-0.03597 -0.01672,-0.05327 -0.0044,-0.01274 -0.0088,-0.02546 -0.01359,-0.03769 -0.0075,-0.01912 -0.01575,-0.03738 -0.02437,-0.05525 -0.0042,-0.0087 -0.0082,-0.01765 -0.01275,-0.02608 -0.01022,-0.01937 -0.02133,-0.03767 -0.03287,-0.05554 -0.0044,-0.0067 -0.0086,-0.01363 -0.01303,-0.02012 -0.01317,-0.01895 -0.02755,-0.03665 -0.04223,-0.05385 -0.0036,-0.0042 -0.0068,-0.0089 -0.01044,-0.01303 -0.09491,-0.105824 -0.219467,-0.1768 -0.367246,-0.218761 -0.04431,-0.01254 -0.09101,-0.02178 -0.139419,-0.02919 -0.01401,-0.0022 -0.02789,-0.0045 -0.04223,-0.0063 -0.04544,-0.0055 -0.09285,-0.0085 -0.141402,-0.0099 -0.01139,-3.44e-4 -0.0216,-0.0021 -0.03315,-0.0023 z"
       id="path83"
       inkscape:connector-curvature="0"
       clip-path="url(#clipPath5331)"
       transform="matrix(0.85689468,0,0,0.85689468,5.8529022,6.0762495)" />
  </g>
</svg>
